<svg xmlns="http://www.w3.org/2000/svg" width="315.686" height="62.055" viewBox="0 0 315.686 62.055">
  <g id="cda_logo" transform="translate(-110.449 -353.999)">
    <path id="Path_272" data-name="Path 272" d="M435.994,465.927a1.021,1.021,0,1,0-1.023-1.026,1.023,1.023,0,0,0,1.023,1.026" transform="translate(-106.001 -67.824)" fill="#241f20"/>
    <path id="Path_273" data-name="Path 273" d="M436.227,455.182a1.022,1.022,0,1,0-1.026-1.022,1.025,1.025,0,0,0,1.026,1.022" transform="translate(-106.076 -64.314)" fill="#241f20"/>
    <path id="Path_274" data-name="Path 274" d="M411.142,455.182a1.022,1.022,0,0,0,0-2.044,1.022,1.022,0,1,0,0,2.044" transform="translate(-97.882 -64.314)" fill="#241f20"/>
    <path id="Path_275" data-name="Path 275" d="M367.753,455.182a1.022,1.022,0,1,0-1.03-1.022,1.026,1.026,0,0,0,1.03,1.022" transform="translate(-83.709 -64.314)" fill="#241f20"/>
    <path id="Path_276" data-name="Path 276" d="M296.285,455.182a1.022,1.022,0,1,0-1.032-1.022,1.025,1.025,0,0,0,1.032,1.022" transform="translate(-60.364 -64.314)" fill="#241f20"/>
    <path id="Path_277" data-name="Path 277" d="M174.907,455.182a1.022,1.022,0,1,0-1.039-1.022,1.045,1.045,0,0,0,1.039,1.022" transform="translate(-20.715 -64.314)" fill="#241f20"/>
    <path id="Path_278" data-name="Path 278" d="M254.844,459.769a1.022,1.022,0,1,0,1.028,1.03,1.02,1.02,0,0,0-1.028-1.03" transform="translate(-46.833 -66.479)" fill="#241f20"/>
    <path id="Path_279" data-name="Path 279" d="M249.6,450.886a1.026,1.026,0,1,0-1.017-1.022,1.031,1.031,0,0,0,1.017,1.022" transform="translate(-45.119 -62.908)" fill="#241f20"/>
    <path id="Path_280" data-name="Path 280" d="M345.6,455.182a1.022,1.022,0,1,0-1.022-1.022,1.027,1.027,0,0,0,1.022,1.022" transform="translate(-76.476 -64.314)" fill="#241f20"/>
    <path id="Path_281" data-name="Path 281" d="M431.766,465.927a1.021,1.021,0,1,0,0-2.041,1.021,1.021,0,0,0,0,2.041" transform="translate(-104.624 -67.824)" fill="#241f20"/>
    <path id="Path_282" data-name="Path 282" d="M367.6,450.867a1.022,1.022,0,1,0-1.016-1.022,1.023,1.023,0,0,0,1.016,1.022" transform="translate(-83.662 -62.904)" fill="#241f20"/>
    <path id="Path_283" data-name="Path 283" d="M363.374,450.867a1.022,1.022,0,1,0-1.026-1.022,1.03,1.03,0,0,0,1.026,1.022" transform="translate(-82.28 -62.904)" fill="#241f20"/>
    <path id="Path_284" data-name="Path 284" d="M174.837,450.867a1.022,1.022,0,1,0-1.024-1.022,1.027,1.027,0,0,0,1.024,1.022" transform="translate(-20.697 -62.904)" fill="#241f20"/>
    <path id="Path_285" data-name="Path 285" d="M170.607,450.867a1.022,1.022,0,1,0-1.024-1.022,1.023,1.023,0,0,0,1.024,1.022" transform="translate(-19.315 -62.904)" fill="#241f20"/>
    <path id="Path_286" data-name="Path 286" d="M271.379,449.516a1.019,1.019,0,1,0-1.017-1.015,1,1,0,0,0,1.017,1.015" transform="translate(-52.234 -62.465)" fill="#241f20"/>
    <path id="Path_287" data-name="Path 287" d="M267.162,449.516a1.019,1.019,0,0,0,0-2.037,1.019,1.019,0,1,0,0,2.037" transform="translate(-50.853 -62.465)" fill="#241f20"/>
    <path id="Path_288" data-name="Path 288" d="M388.735,449.516a1.019,1.019,0,1,0-1.029-1.015,1.014,1.014,0,0,0,1.029,1.015" transform="translate(-90.563 -62.465)" fill="#241f20"/>
    <path id="Path_289" data-name="Path 289" d="M384.5,449.516a1.019,1.019,0,1,0-1.015-1.015,1.005,1.005,0,0,0,1.015,1.015" transform="translate(-89.186 -62.465)" fill="#241f20"/>
    <path id="Path_290" data-name="Path 290" d="M296.018,466.015A1.015,1.015,0,1,0,295.011,465a1.016,1.016,0,0,0,1.007,1.019" transform="translate(-60.285 -67.857)" fill="#241f20"/>
    <path id="Path_291" data-name="Path 291" d="M291.786,466.015A1.015,1.015,0,1,0,290.769,465a1.018,1.018,0,0,0,1.017,1.019" transform="translate(-58.899 -67.857)" fill="#241f20"/>
    <path id="Path_292" data-name="Path 292" d="M200.6,466.015A1.015,1.015,0,1,0,199.587,465a1.007,1.007,0,0,0,1.017,1.019" transform="translate(-29.116 -67.857)" fill="#241f20"/>
    <path id="Path_293" data-name="Path 293" d="M345.645,450.867a1.022,1.022,0,1,0-1.027-1.022,1.029,1.029,0,0,0,1.027,1.022" transform="translate(-76.488 -62.904)" fill="#241f20"/>
    <path id="Path_294" data-name="Path 294" d="M314.41,448.76h-1.916v-.213c0-.236,0-.787.541-.787l.364.235,1-.206a1.463,1.463,0,0,0-1.4-.894,1.527,1.527,0,0,0-1.545,1.692v.173h-.714v.908h3.671Zm-108.826.471h-2.042v8.481h2.042Zm-1.47,6.62H192.561l.071-.81a3.524,3.524,0,1,0-6.971,0l.072.81H174.942c-.123-3.015-1.9-5.487-6.081-5.487a.97.97,0,0,0-1,1,.984.984,0,0,0,1,1.011s3.817-.081,3.817,3.472h-17.39v-3.729h-2.061v3.729h-15.4l.068-.81a3.524,3.524,0,1,0-6.971,0l.067.81H118.345l2.006-1.706a4.4,4.4,0,0,0-8.785,0l2,1.743h-.309a3.423,3.423,0,0,0-2.576,3.343v1.306h1.959V459.23a1.472,1.472,0,0,1,1.394-1.518H131.8a3.171,3.171,0,0,0,5.227,0h49.5a3.192,3.192,0,0,0,5.25,0h12.337ZM115.96,455.6c-.522-.422-1.721-1.448-2.271-1.978a2.09,2.09,0,0,1,2.279-1.817,2.125,2.125,0,0,1,2.249,1.817Zm18.455,1.574c-.8,0-1.436-.993-1.436-2.228s.64-2.229,1.436-2.229,1.434,1,1.434,2.229-.644,2.228-1.434,2.228m54.733,0c-.795,0-1.442-.993-1.442-2.228s.647-2.229,1.442-2.229,1.444,1,1.444,2.229-.642,2.228-1.444,2.228M283.1,455.85H270.218V452.1h-2.037v3.751H255.023l.066-.81a3.52,3.52,0,1,0-6.962,0l.055.81H237.005v-3.729h-2.041v3.729h-14.73v-5.682H216.9c-2.06,0-3.27,1.244-3.27,3.821,0,2.755,1.861,3.722,3.27,3.722H248.99a3.174,3.174,0,0,0,5.231,0h30.918V452.1H283.1Zm-64.883,0h-1.2c-.828,0-1.36-.927-1.36-1.861,0-.8.238-2.037,1.36-2.037h1.2Zm33.377,1.324c-.787,0-1.441-.993-1.441-2.228s.654-2.229,1.441-2.229,1.457,1,1.457,2.229-.658,2.228-1.457,2.228m94.929-7.606v-1.242H344.67v1.242a3.685,3.685,0,0,0-3.318,3.579v2.7H331.239v-3.729H329.2v3.729H314.354V452.1h-2.045v3.751H299.136v-5.682h-3.343c-2.074,0-3.277,1.244-3.277,3.821,0,2.755,1.875,3.722,3.277,3.722h54.062v-4.564a3.677,3.677,0,0,0-3.332-3.579M297.1,455.85H295.9c-.831,0-1.357-.927-1.357-1.861,0-.8.247-2.037,1.357-2.037H297.1Zm47.572,0h-1.383v-2.7a1.929,1.929,0,0,1,1.383-1.714Zm3.254,0h-1.4v-4.438a2,2,0,0,1,1.4,1.735ZM209.115,448.2h-2.044v8.393h2.044Z" transform="translate(-0.077 -62.274)" fill="#241f20"/>
    <path id="Path_295" data-name="Path 295" d="M264.509,486.1l-2.534-7.422h2.146l1.556,5.072h.033l1.56-5.072h2.03l-2.508,7.422Z" transform="translate(-49.494 -72.655)" fill="#241f20"/>
    <path id="Path_296" data-name="Path 296" d="M312.211,480.853a3.69,3.69,0,0,0-.6-1.272,3.186,3.186,0,0,0-1.052-.868,3.136,3.136,0,0,0-1.5-.331,2.852,2.852,0,0,0-1.257.264,2.2,2.2,0,0,0-.943.875h-.04l0-.948h-1.946v9.014a1.026,1.026,0,0,0,2.052,0l.007,0v-2.5h.022a2.447,2.447,0,0,0,.953.816,2.8,2.8,0,0,0,1.262.287,2.927,2.927,0,0,0,2.449-1.17,3.49,3.49,0,0,0,.6-1.214,5.125,5.125,0,0,0,.205-1.442,5.671,5.671,0,0,0-.205-1.508m-1.92,2.335-.306.747-.533.529-.832.207-.827-.207-.556-.529-.295-.747-.092-.879.092-.9.288-.758.533-.541.842-.2.816.2.548.549.308.772.092.875-.081.879" transform="translate(-63.503 -72.559)" fill="#241f20"/>
    <path id="Path_297" data-name="Path 297" d="M329.192,479.834l-.571-.819a2.141,2.141,0,0,0-.849-.464,4.326,4.326,0,0,0-1.089-.136,2.365,2.365,0,0,0-1.349.375,3.449,3.449,0,0,0-.9.853,1.761,1.761,0,0,0-.882-.952,2.816,2.816,0,0,0-1.277-.276,2.582,2.582,0,0,0-1.3.316,3.018,3.018,0,0,0-.978.886h-.018v-1.011h-1.923v7.428H320.1v-4.3a1.971,1.971,0,0,1,.165-.883l.364-.529.463-.228.382-.067.72.162.368.441.125.589.007.663v4.133h2.052V481.9l.067-.684.172-.6.434-.434.677-.162.695.14.379.39.157.573.026.7V485a1.024,1.024,0,0,0,.975,1.023v.007l.007-.007.037.007a1.023,1.023,0,0,0,1.023-1.03v-3.928a3.24,3.24,0,0,0-.2-1.243" transform="translate(-67.813 -72.57)" fill="#241f20"/>
    <path id="Path_298" data-name="Path 298" d="M356.506,484.977v-3.524a5.306,5.306,0,0,0-.139-1.261,2.265,2.265,0,0,0-.415-.963l-.82-.618a3.5,3.5,0,0,0-1.346-.224,3,3,0,0,0-1.268.294,2.521,2.521,0,0,0-1.019.941h-.029v-1.034h-1.946V486h2.049v-3.891a2.647,2.647,0,0,1,.382-1.618,1.363,1.363,0,0,1,1.2-.5,1.115,1.115,0,0,1,1.011.456,2.5,2.5,0,0,1,.294,1.372V485a1.016,1.016,0,0,0,1.015.993V486h.007a1.027,1.027,0,0,0,1.029-1.026" transform="translate(-78.091 -72.561)" fill="#241f20"/>
    <path id="Path_299" data-name="Path 299" d="M286.422,474.592v9.241a1.019,1.019,0,0,0,1.013.993,1.034,1.034,0,0,0,1.028-.993v-9.241Z" transform="translate(-57.479 -71.321)" fill="#241f20"/>
    <path id="Path_300" data-name="Path 300" d="M257.49,481.092a3.789,3.789,0,0,0-.64-1.4,3.424,3.424,0,0,0-1.153-.978,3.561,3.561,0,0,0-1.653-.36,3.711,3.711,0,0,0-2.749,1.114,3.687,3.687,0,0,0-.776,1.25,4.341,4.341,0,0,0-.267,1.545,4.267,4.267,0,0,0,.267,1.582,3.8,3.8,0,0,0,.75,1.232,3.3,3.3,0,0,0,1.19.8,4.382,4.382,0,0,0,1.585.287,3.94,3.94,0,0,0,2.148-.578l.711-.677v0l.008-.007.007-.018v-.008a.862.862,0,0,0-.2-1.11.717.717,0,0,0-1.133.176l-.417.383a2.065,2.065,0,0,1-2.374-.14,2.067,2.067,0,0,1-.5-1.434h5.348a4.575,4.575,0,0,0-.151-1.655m-5.2.364.1-.49.261-.514.511-.412.826-.166a1.4,1.4,0,0,1,1.111.409,2.4,2.4,0,0,1,.518,1.173Z" transform="translate(-45.665 -72.548)" fill="#241f20"/>
    <path id="Path_301" data-name="Path 301" d="M280.815,481.092a3.876,3.876,0,0,0-.658-1.4,3.337,3.337,0,0,0-1.157-.978,3.513,3.513,0,0,0-1.649-.36,4.042,4.042,0,0,0-1.532.29,3.841,3.841,0,0,0-1.207.823,3.34,3.34,0,0,0-.774,1.25,4.229,4.229,0,0,0-.279,1.545,4.47,4.47,0,0,0,.275,1.582,3.862,3.862,0,0,0,.741,1.232,3.3,3.3,0,0,0,1.2.8,4.246,4.246,0,0,0,1.571.287,3.99,3.99,0,0,0,2.162-.578l.7-.677.007,0V484.9l.011-.018v-.008a.887.887,0,0,0-.2-1.11.725.725,0,0,0-1.139.176l-.406.383a2.089,2.089,0,0,1-2.389-.14,2.052,2.052,0,0,1-.5-1.434h5.366a5.667,5.667,0,0,0-.152-1.655m-5.214.364.1-.49.275-.514.511-.412.826-.166a1.406,1.406,0,0,1,1.11.409,2.384,2.384,0,0,1,.493,1.173Z" transform="translate(-53.278 -72.548)" fill="#241f20"/>
    <path id="Path_302" data-name="Path 302" d="M343.918,481.388a4.335,4.335,0,0,0-.646-1.415,3.309,3.309,0,0,0-1.159-.982,3.644,3.644,0,0,0-1.654-.364,3.874,3.874,0,0,0-1.545.3,3.7,3.7,0,0,0-1.2.828,3.569,3.569,0,0,0-.78,1.236,4.339,4.339,0,0,0-.269,1.555,4.49,4.49,0,0,0,.262,1.574,3.676,3.676,0,0,0,.746,1.236,3.464,3.464,0,0,0,1.21.8,4.214,4.214,0,0,0,1.574.275,3.787,3.787,0,0,0,2.141-.57l.721-.677v.008l.015-.016v-.014a.857.857,0,0,0-.2-1.115.713.713,0,0,0-1.132.183l-.413.372a1.775,1.775,0,0,1-1.051.306,1.845,1.845,0,0,1-1.328-.437,2.1,2.1,0,0,1-.508-1.442h5.366a5.1,5.1,0,0,0-.151-1.641m-5.215.354.092-.489.279-.526.508-.408.823-.158a1.393,1.393,0,0,1,1.1.4,2.235,2.235,0,0,1,.511,1.184Z" transform="translate(-73.891 -72.639)" fill="#241f20"/>
    <path id="Path_303" data-name="Path 303" d="M365.908,477.694H364.5v-2.24h-2.029v8.661a1.014,1.014,0,0,0,1.008.993h.011a1.018,1.018,0,0,0,1.011-.993v-5.057h1.405Z" transform="translate(-82.321 -71.603)" fill="#241f20"/>
    <path id="Path_304" data-name="Path 304" d="M421.208,480.689a3.447,3.447,0,0,1,.768-1.225,3.317,3.317,0,0,1,1.218-.783,4.011,4.011,0,0,1,1.574-.283,4.067,4.067,0,0,1,1.584.283,3.352,3.352,0,0,1,1.222.783,3.544,3.544,0,0,1,.771,1.225,4.732,4.732,0,0,1,.273,1.621,4.564,4.564,0,0,1-.273,1.6,3.459,3.459,0,0,1-.771,1.228,3.533,3.533,0,0,1-1.222.783,4.431,4.431,0,0,1-1.584.276,4.369,4.369,0,0,1-1.574-.276,3.493,3.493,0,0,1-1.218-.783,3.367,3.367,0,0,1-.768-1.228,4.557,4.557,0,0,1-.284-1.6,4.727,4.727,0,0,1,.284-1.621m1.853,2.485.29.766.552.537a1.643,1.643,0,0,0,.865.206,1.753,1.753,0,0,0,.878-.206l.541-.537.3-.766.092-.864-.092-.871-.3-.772-.541-.541a1.825,1.825,0,0,0-.878-.2,1.71,1.71,0,0,0-.865.2l-.552.541-.29.772-.092.871.092.864" transform="translate(-101.413 -72.564)" fill="#241f20"/>
    <path id="Path_305" data-name="Path 305" d="M291.682,480.689a3.591,3.591,0,0,1,.78-1.225,3.32,3.32,0,0,1,1.206-.783,3.992,3.992,0,0,1,1.585-.283,4.1,4.1,0,0,1,1.589.283,3.308,3.308,0,0,1,1.209.783,3.527,3.527,0,0,1,.787,1.225,4.832,4.832,0,0,1,.257,1.621,4.66,4.66,0,0,1-.257,1.6,3.443,3.443,0,0,1-.787,1.228,3.486,3.486,0,0,1-1.209.783,4.466,4.466,0,0,1-1.589.276,4.343,4.343,0,0,1-1.585-.276,3.4,3.4,0,0,1-1.986-2.011,4.331,4.331,0,0,1-.263-1.6,4.488,4.488,0,0,1,.263-1.621m1.865,2.485.291.766.559.537a1.66,1.66,0,0,0,.857.206l.857-.206.57-.537.3-.766.077-.864-.077-.871-.3-.772-.57-.541-.857-.2a1.728,1.728,0,0,0-.857.2l-.559.541-.291.772-.083.871.083.864" transform="translate(-59.112 -72.564)" fill="#241f20"/>
    <path id="Path_306" data-name="Path 306" d="M125.982,480.689a3.328,3.328,0,0,1,.78-1.225,3.18,3.18,0,0,1,1.2-.783,3.983,3.983,0,0,1,1.585-.283,4.089,4.089,0,0,1,1.585.283,3.279,3.279,0,0,1,1.211.783,3.381,3.381,0,0,1,.78,1.225,4.458,4.458,0,0,1,.272,1.621,4.3,4.3,0,0,1-.272,1.6,3.3,3.3,0,0,1-.78,1.228,3.453,3.453,0,0,1-1.211.783,4.456,4.456,0,0,1-1.585.276,4.332,4.332,0,0,1-1.585-.276,3.344,3.344,0,0,1-1.2-.783,3.254,3.254,0,0,1-.78-1.228,4.263,4.263,0,0,1-.267-1.6,4.416,4.416,0,0,1,.267-1.621m1.86,2.485.287.766.561.537a1.605,1.605,0,0,0,.859.206,1.7,1.7,0,0,0,.866-.206l.561-.537.287-.766.09-.864-.09-.871-.287-.772-.561-.541a1.773,1.773,0,0,0-.866-.2,1.67,1.67,0,0,0-.859.2l-.561.541-.287.772-.09.871.09.864" transform="translate(-4.986 -72.564)" fill="#241f20"/>
    <path id="Path_307" data-name="Path 307" d="M415.487,478.924a2.509,2.509,0,0,0-.419-.963,1.973,1.973,0,0,0-.832-.618,3.428,3.428,0,0,0-1.335-.217,2.69,2.69,0,0,0-1.174.287,2.523,2.523,0,0,0-1,.942h-.04V474.5h-2.046v9.2a1.014,1.014,0,0,0,1.019,1.019l.012.007v-.007a1,1,0,0,0,1.015-1.019v-2.865a2.735,2.735,0,0,1,.367-1.618,1.412,1.412,0,0,1,1.21-.486,1.1,1.1,0,0,1,1.007.441,2.57,2.57,0,0,1,.279,1.372v4.167H415.6v-4.536a6.514,6.514,0,0,0-.114-1.261" transform="translate(-97.402 -71.292)" fill="#241f20"/>
    <path id="Path_308" data-name="Path 308" d="M438.654,478.4l-.751.114-.683.317-.545.507-.39.641h-.036V478.6h-1.931v6.381h-.008A1.006,1.006,0,0,0,435.321,486v0a1.024,1.024,0,0,0,1.037-.985v-2.339l.1-.941.331-.751.626-.514a2.457,2.457,0,0,1,.949-.169l.386.015.349.051v-1.9l-.441-.07" transform="translate(-105.785 -72.564)" fill="#241f20"/>
    <path id="Path_309" data-name="Path 309" d="M442.684,483.549h0a1.009,1.009,0,0,0,1.018.993,1,1,0,0,0,1-.993v-6.414h-2.022Zm1.044-7.6a1.019,1.019,0,1,0-1.03-1.008,1.02,1.02,0,0,0,1.03,1.008" transform="translate(-108.521 -71.099)" fill="#241f20"/>
    <path id="Path_310" data-name="Path 310" d="M451.791,477.61h-1.4v-2.243h-2.042v8.657a1.021,1.021,0,0,0,2.042,0v-5.053h1.4Z" transform="translate(-110.372 -71.574)" fill="#241f20"/>
    <path id="Path_311" data-name="Path 311" d="M405.4,477.61h-1.411v-2.243h-2.019v8.657h0a1.007,1.007,0,0,0,2.015,0v-5.053H405.4Z" transform="translate(-95.221 -71.574)" fill="#241f20"/>
    <path id="Path_312" data-name="Path 312" d="M459.785,478.676l-1.626,5.087h-.036l-1.685-5.087H454.28l2.592,6.955.1.459-.2.611-.593.309-.6-.015-.592-.059c-.39-.073-.836.206-.836.846a.9.9,0,0,0,.836.835v0l.617.048.632.033a3.069,3.069,0,0,0,1.633-.386,2.6,2.6,0,0,0,.919-1.291l3.1-8.349Z" transform="translate(-112.265 -72.655)" fill="#241f20"/>
    <path id="Path_313" data-name="Path 313" d="M393.428,478.676v3.891a2.76,2.76,0,0,1-.368,1.625,1.435,1.435,0,0,1-1.2.5,1.11,1.11,0,0,1-1.018-.441,2.558,2.558,0,0,1-.283-1.378v-4.193h-2.044v4.568a5.842,5.842,0,0,0,.114,1.258,2.5,2.5,0,0,0,.416.956,2.029,2.029,0,0,0,.842.617,3.674,3.674,0,0,0,1.335.214,2.974,2.974,0,0,0,1.273-.294,2.29,2.29,0,0,0,1-.923h.045v.063h.007a.964.964,0,0,0,1.927,0v-6.459Z" transform="translate(-90.827 -72.655)" fill="#241f20"/>
    <path id="Path_314" data-name="Path 314" d="M203.063,483.562h0a1,1,0,0,0,1,1h.007a1.008,1.008,0,0,0,1.017-1V477.14h-2.03Zm1.039-7.594a1.019,1.019,0,1,0-1.013-1.011,1.016,1.016,0,0,0,1.013,1.011" transform="translate(-30.251 -71.105)" fill="#241f20"/>
    <path id="Path_315" data-name="Path 315" d="M169.7,479.834a2.154,2.154,0,0,0-.558-.823,2.368,2.368,0,0,0-.866-.46,3.864,3.864,0,0,0-1.1-.136,2.35,2.35,0,0,0-1.337.368,3.393,3.393,0,0,0-.9.861,1.715,1.715,0,0,0-.881-.952,2.839,2.839,0,0,0-1.283-.276,2.7,2.7,0,0,0-1.3.309,3,3,0,0,0-.964.894h-.031v-1.011H158.55v7.422h2.041v-4.3a1.979,1.979,0,0,1,.162-.875l.373-.529.463-.232.384-.069.727.169.357.434.121.6.007.655V486h2.056v-4.112l.042-.677.2-.6.427-.434.683-.169.69.147.38.382.151.574.029.71V485a1.024,1.024,0,0,0,.98,1.02v0h.037A1.029,1.029,0,0,0,169.906,485v-3.928a3.529,3.529,0,0,0-.208-1.243" transform="translate(-15.712 -72.57)" fill="#241f20"/>
    <path id="Path_316" data-name="Path 316" d="M150.306,479.834a2.116,2.116,0,0,0-.561-.823l-.863-.46a3.857,3.857,0,0,0-1.1-.136,2.355,2.355,0,0,0-1.333.368,3.389,3.389,0,0,0-.894.861,1.812,1.812,0,0,0-.885-.952,2.864,2.864,0,0,0-1.3-.276,2.706,2.706,0,0,0-1.293.309,2.923,2.923,0,0,0-.952.894h-.042v-1.011h-1.92v7.422H141.2v-4.3a2.3,2.3,0,0,1,.154-.875l.38-.529.457-.232.379-.069.739.169.357.434.121.6.022.655V486h2.034v-4.112l.054-.677.206-.6.411-.434.692-.169.679.147.384.382.162.574.026.71V485a1.021,1.021,0,0,0,.976,1.02l.011,0h.029a1.033,1.033,0,0,0,1.04-1.023v-3.928a3.53,3.53,0,0,0-.207-1.243" transform="translate(-9.378 -72.57)" fill="#241f20"/>
    <path id="Path_317" data-name="Path 317" d="M212.724,477.625h-1.409v-2.258H209.3v8.664a1.008,1.008,0,0,0,2.015,0v-5.045h1.409Z" transform="translate(-32.288 -71.574)" fill="#241f20"/>
    <path id="Path_318" data-name="Path 318" d="M220.707,478.7l-1.623,5.079h-.033l-1.688-5.079h-2.145l2.594,6.958.075.46-.195.6-.589.317-.614-.014-.579-.059c-.381-.074-.837.206-.837.839a.908.908,0,0,0,.837.842l.625.063.622.015a2.91,2.91,0,0,0,1.635-.394,2.468,2.468,0,0,0,.917-1.291l3.1-8.333Z" transform="translate(-34.174 -72.662)" fill="#241f20"/>
    <path id="Path_319" data-name="Path 319" d="M197.317,485v-3.542a6.107,6.107,0,0,0-.129-1.254,2.256,2.256,0,0,0-.425-.955l-.813-.615a3.414,3.414,0,0,0-1.346-.224,3.088,3.088,0,0,0-1.279.287,2.5,2.5,0,0,0-1,.941h-.033v-1.037h-1.941v7.422H192.4V482.14a2.818,2.818,0,0,1,.355-1.63,1.457,1.457,0,0,1,1.216-.492,1.087,1.087,0,0,1,1.013.456,2.7,2.7,0,0,1,.283,1.368v3.185a1.024,1.024,0,0,0,1.017,1h0A1.022,1.022,0,0,0,197.317,485" transform="translate(-26.1 -72.57)" fill="#241f20"/>
    <path id="Path_320" data-name="Path 320" d="M182.622,478.7v3.891a2.685,2.685,0,0,1-.381,1.618,1.355,1.355,0,0,1-1.2.5,1.1,1.1,0,0,1-1.006-.453,2.594,2.594,0,0,1-.294-1.372V478.7H177.7v4.561a6.406,6.406,0,0,0,.118,1.257,2.478,2.478,0,0,0,.432.968,1.929,1.929,0,0,0,.822.607,3.676,3.676,0,0,0,1.344.213,3.124,3.124,0,0,0,1.262-.284,2.328,2.328,0,0,0,1.017-.941h.033v.077h.007a.968.968,0,0,0,1.937,0V478.7Z" transform="translate(-21.966 -72.662)" fill="#241f20"/>
    <path id="Path_321" data-name="Path 321" d="M239.265,474.181a5.564,5.564,0,0,1,1.891.316,4.153,4.153,0,0,1,1.517.968,4.412,4.412,0,0,1,.984,1.6,6.411,6.411,0,0,1,.362,2.277,7.443,7.443,0,0,1-.291,2.114,4.521,4.521,0,0,1-.9,1.658,4,4,0,0,1-1.464,1.118,5.191,5.191,0,0,1-2.1.394h-4.511V474.181Zm-.158,8.521.978-.169.83-.533a2.427,2.427,0,0,0,.575-.97,4.116,4.116,0,0,0,.223-1.468,6.184,6.184,0,0,0-.143-1.427,2.814,2.814,0,0,0-.511-1.089,2.231,2.231,0,0,0-.931-.7,3.819,3.819,0,0,0-1.431-.238h-1.642v6.59Z" transform="translate(-40.603 -71.187)" fill="#241f20"/>
    <path id="Path_322" data-name="Path 322" d="M119.76,480.788a1.062,1.062,0,1,0-2.124,0,2.259,2.259,0,0,1-2.275,2.232c-1.97,0-2.7-1.673-2.7-3.336,0-1.75.735-3.427,2.7-3.427a2.138,2.138,0,0,1,2.174,1.758h2.131a4.034,4.034,0,0,0-4.3-3.593c-3.093,0-4.912,2.3-4.912,5.262,0,2.873,1.819,5.171,4.912,5.171a4.148,4.148,0,0,0,4.33-3.747l.069-.321" transform="translate(0 -71.266)" fill="#241f20"/>
    <path id="Path_323" data-name="Path 323" d="M382.4,483.358h0l-2.9-8-.007.008-.412-1.089h-2.328l-3.943,10.386h2.306l.813-2.3h3.957l.611,1.693a1,1,0,0,0,1.129.643l.154-.04.136-.058a1.025,1.025,0,0,0,.482-1.236m-5.87-2.707,1.353-3.806,1.383,3.806Z" transform="translate(-85.697 -71.217)" fill="#241f20"/>
    <path id="Path_324" data-name="Path 324" d="M285.662,329.693a30.677,30.677,0,0,0-24.573,49.089,6.015,6.015,0,0,1,1.5-1.993,14.931,14.931,0,0,1-1.839-7.2,15.15,15.15,0,1,1,15.165,15.132,15.323,15.323,0,0,1-4.5-.671,5.76,5.76,0,0,1-2.232,2.186,30.679,30.679,0,1,0,16.476-56.548m11.113,39.9a20.856,20.856,0,0,0-36.716-13.521,22.7,22.7,0,0,1,43.686,8.648A22.671,22.671,0,0,1,288.61,386.1a20.749,20.749,0,0,0,8.165-16.507m9.371,11.249a28.746,28.746,0,0,1-12.349,7.311,26.608,26.608,0,0,0,13.953-23.433,26.7,26.7,0,0,0-49.463-13.938,28.99,28.99,0,1,1,47.86,30.06" transform="translate(109.78 24.306)" fill="#aeb671"/>
    <path id="Path_325" data-name="Path 325" d="M272.808,410.245c-.119-.368-3.7-11.092-3.7-11.092s-10.741-3.6-11.1-3.716c-.421-.15-.7.079-.914.464-.535.891-1.466,2.477-1.815,3.069a1.42,1.42,0,0,0,.846,2.157c1,.37,8.222,2.773,8.222,2.773s2.417,7.195,2.763,8.221a1.433,1.433,0,0,0,2.17.835c.592-.345,2.181-1.273,3.084-1.8.38-.232.6-.5.452-.912" transform="translate(109.747 2.847)" fill="#ff173a"/>
  </g>
</svg>
