<svg xmlns="http://www.w3.org/2000/svg" width="3815" height="836" viewBox="0 0 3815 836" fill="none"><path d="M136 390.9C124.4 389.9 112.4 388 97.9996 384.9C84.1996 382 81.7996 381.3 67.4996 376C44.3996 367.4 18.0996 352.6 4.1996 340.4L0.599609 337.3L2.59961 333.4C4.39961 329.9 21.8996 299 22.5996 298.1C22.7996 297.9 25.5996 300.2 28.7996 303.1C39.9996 313.5 61.1996 326.5 75.9996 332.1C80.0996 333.6 86.6996 336.1 90.4996 337.5C94.3996 339 101.6 341.1 106.5 342.1C111.5 343.2 118.4 344.8 122 345.5C143.8 350.3 173.9 349.7 197 343.9C219.5 338.4 231.9 329.3 239.9 312.8C250.3 291.2 246.4 269.1 229.1 252C222.7 245.7 219.7 243.6 210.6 239.1C200.8 234.4 169.2 223.4 160 221.5C158.1 221.1 149.5 218.9 141 216.5C132.5 214.2 123.5 211.9 121 211.6C113.7 210.4 77.9996 198.3 67.7996 193.6C57.7996 188.9 47.0996 182.2 40.0996 176.2C29.3996 167.1 20.5996 151.5 16.2996 134C13.9996 125 14.0996 102.2 16.4996 91.5002C18.4996 82.2002 22.7996 69.3002 25.9996 63.0002C33.5996 48.2002 46.0996 34.1002 60.3996 24.5002C68.3996 19.2002 87.5996 9.80016 93.0996 8.60016C94.3996 8.30016 100.2 7.00016 106 5.60016C125.8 0.900161 137.7 -0.299839 158.5 0.300162C177.2 0.800161 184.6 1.80016 202.5 5.90016C225 11.2002 246.2 20.9002 268.4 36.0002C278.4 42.8002 278.6 43.1002 276.3 47.4002C273.7 52.4002 264.4 68.5002 260.1 75.6002L256.5 81.7002L250.5 76.3002C238.8 65.6002 214.7 53.6002 194.6 48.5002C174 43.3002 168.1 42.5002 149 42.6002C107.6 42.7002 82.3996 53.9002 70.2996 77.5002C68.0996 81.9002 65.6996 87.9002 65.0996 90.8002C63.4996 98.3002 63.6996 114.5 65.4996 121.2C67.3996 128.7 72.7996 137.6 78.6996 143.1C83.6996 147.8 97.1996 155.5 105 158.3C112.3 160.8 140.2 168.8 144 169.5C153.9 171.1 191.4 180.8 204.7 185.1C213.1 187.8 220.5 190 221.1 190C221.8 190 227.6 192.3 233.9 195.2C247 201 261.9 210.3 269.8 217.6C291.5 237.5 301.5 273 294.6 305.6C287.7 338.4 268.1 362.1 235.3 377.2C224.5 382.2 207.2 386.8 189.3 389.5C176.7 391.4 149.5 392.1 136 390.9Z" fill="#808080"></path><path d="M2595.5 389.6C2547.6 381.7 2504.6 353.3 2474 309.6C2457.8 286.4 2446.7 257.7 2439.4 220.2L2439 218H2463H2487L2487.4 220.3C2487.7 221.5 2488.4 225.4 2489.1 229C2492.3 246 2505.2 276.7 2513.8 287.9C2515.3 289.9 2517.6 293.1 2518.9 295C2522.9 300.9 2539.9 318.2 2545.4 322C2568.4 337.6 2576.3 341.2 2599 346.1C2607 347.9 2610.9 348.1 2623.5 347.7C2658.6 346.7 2685.7 335.3 2709.6 311.5C2717.6 303.6 2726.8 291.1 2729.6 284.4C2730.4 282.5 2731.5 281 2732 281C2732.6 281 2736.5 283 2740.8 285.4C2745 287.8 2753.6 292.6 2759.8 296C2765.9 299.4 2771 302.5 2771 302.8C2771 303.1 2768.7 307.5 2765.8 312.5C2756.2 329.4 2743.5 343.4 2726.5 356.1C2721.4 359.9 2698.9 373 2697.5 373C2697.2 373 2692.7 374.8 2687.4 377.1C2677.6 381.3 2661.9 385.7 2646.3 388.5C2634.4 390.7 2605.9 391.3 2595.5 389.6Z" fill="#808080"></path><path d="M362 248.8V109.7L366.6 115.6C369.1 118.8 372.9 123.8 375.1 126.5C377.2 129.3 380.4 133.5 382.2 135.9C384 138.3 386.9 142 388.5 144.1C390.2 146.2 395.4 153.1 400.3 159.3L409 170.7V279.3V388H385.5H362V248.8Z" fill="#808080"></path><path d="M2791.4 379.8C2797.5 364.7 2801.3 355.6 2806.2 344.3C2808.8 338.1 2811 332.7 2811 332.2C2811 331.7 2813 326.8 2815.4 321.4C2817.8 315.9 2820.1 310.4 2820.5 309C2820.9 307.6 2823.4 301.5 2826.1 295.4C2828.8 289.2 2831 283.8 2831 283.4C2831 282.9 2833.3 277.1 2836.1 270.5C2847.1 244.3 2854.9 225.3 2860.2 212C2861.8 207.9 2865.1 199.8 2867.5 194C2869.9 188.2 2874.2 177.9 2877 171C2879.8 164.1 2884.1 153.8 2886.5 148C2889 142.2 2891.6 135.7 2892.3 133.5C2893.1 131.3 2895.5 125.2 2897.8 120C2906.7 99.2 2912 86.3 2912 85.5C2912 85.1 2914 80.2 2916.4 74.6C2920.9 64.3 2925.2 54 2932 37C2938 22 2943 9.8 2944.5 6.3L2946 3H2965.6H2985.2L2984.4 6.2C2984.1 8 2981.5 15.1 2978.9 21.9C2976.2 28.7 2974 34.8 2974 35.4C2974 36 2972.6 39.9 2970.9 44C2969.2 48.1 2966.5 55.1 2965 59.5C2963.5 63.9 2960.3 72.2 2958 78C2955.6 83.8 2952.2 92.3 2950.3 97C2948.4 101.7 2945.7 108.7 2944.4 112.5C2943.1 116.4 2941.3 121 2940.4 122.8C2939 125.9 2932.9 141.3 2924 164.5C2918.3 179.6 2913.1 192.7 2909.9 200.5C2908.3 204.4 2905.7 211.1 2904.1 215.5C2902.5 219.9 2899.3 228.2 2897 234C2888.9 253.8 2884.7 264.5 2883 269.5C2882 272.3 2879.4 279 2877.2 284.5C2875 290 2870.6 301 2867.5 309C2864.4 317 2860 328 2857.8 333.5C2855.6 339 2853 345.8 2852 348.5C2851.1 351.3 2848.5 358 2846.3 363.5C2844.1 369 2841 376.8 2839.5 380.8L2836.8 388H2812.5H2788.1L2791.4 379.8Z" fill="#808080"></path><path d="M3089.7 379.8C3087.8 375.2 3082.1 361.4 3077.1 349C3064.1 316.5 3063.3 314.5 3059 304C3056.9 298.8 3053.4 290 3051.2 284.5L3047.2 274.5L2986.2 274.2L2925.3 274L2929.3 263.7C2931.5 258.1 2934.7 250 2936.4 245.8L2939.4 238H2987.7C3014.3 238 3036 237.7 3036 237.3C3035.9 235.6 3032.1 225 3028.2 216C3026 210.8 3023.9 205.4 3023.5 204C3023.1 202.6 3020.9 196.8 3018.5 191C3010.4 170.9 3006.7 161.4 3003.5 153C3000.6 145.3 2997.3 137 2990.2 119.3C2988.9 115.9 2988 112.3 2988.3 111.3C2989.8 106.5 2995.5 90.6 2998.5 83C3000.3 78.3 3003.1 70.7 3004.5 66.2C3006 61.7 3007.6 58 3007.9 58C3008.6 58 3013 67.9 3015.4 74.7C3016.2 77 3018.6 83.1 3020.8 88.2C3023 93.3 3026.7 102 3029 107.5C3031.3 113 3033.9 119.3 3034.6 121.5C3036.1 125.7 3041.9 139.7 3049 156.5C3051.4 162 3054.1 168.8 3055 171.5C3056 174.3 3058.2 179.7 3060 183.5C3061.7 187.4 3064.5 193.9 3066 198C3067.6 202.1 3071.9 212.7 3075.5 221.5C3079.2 230.3 3083.3 240.4 3084.6 243.9C3086 247.4 3089 254.8 3091.3 260.4C3093.7 265.9 3096.7 273.2 3098 276.5C3099.3 279.8 3101.6 285.3 3103.2 288.7C3104.7 292.1 3106 295.3 3106 295.8C3106 296.3 3108 301.3 3110.5 306.9C3113 312.4 3115.9 319.4 3116.9 322.3C3119.1 328.2 3130.3 355.5 3133 361.5C3134 363.7 3135.7 368 3136.8 371C3137.9 374 3139.9 379.1 3141.4 382.3L3144 388H3118.6H3093.3L3089.7 379.8Z" fill="#808080"></path><path d="M3197 195.5V2.90039L3287.8 3.20039L3378.5 3.50039L3389 6.30039C3433.4 18.3004 3468.2 58.9004 3477 108.9C3479.6 123.7 3477.5 148.7 3472.5 163C3471.7 165.3 3471 168 3471 169C3471 172 3459.6 193.2 3453.8 201C3441 218.2 3422.9 231.7 3405 237.5C3402 238.4 3399.1 239.6 3398.7 240C3397.4 241.1 3403.7 252.1 3416.1 270.2C3418.2 273.3 3420 276.2 3420 276.5C3420 276.8 3422.4 280.7 3425.3 285.3C3428.3 289.8 3433.1 297.3 3436 302C3439 306.7 3443.2 313.4 3445.5 317C3447.8 320.6 3452.5 328 3455.9 333.5C3459.4 339 3464.3 346.7 3466.9 350.7C3469.4 354.6 3473.8 361.5 3476.5 366C3479.3 370.5 3483.4 377.1 3485.8 380.6C3488.1 384.1 3490 387.3 3490 387.5C3490 387.8 3478 387.9 3463.3 387.8L3436.5 387.5L3432.9 382C3422.7 366.4 3419.5 361.4 3419.1 360.5C3419 360 3416.4 355.9 3413.6 351.5C3406.3 340.5 3399.3 329.5 3394 320.9C3391.5 316.9 3387.4 310.5 3384.9 306.6C3382.4 302.7 3377.5 295 3374 289.5C3367.9 279.9 3363.1 272.3 3354.5 259C3352.3 255.5 3349.8 251.6 3349 250.2C3347 247 3333.7 226.4 3331 222.5C3329.9 220.9 3327.2 216.7 3325 213.3L3321 207H3344.3C3369.5 207 3375.9 206.1 3387.1 201.5C3402.9 194.9 3414 182.6 3422.7 162C3427.8 150 3428.7 146 3429.5 133C3430.9 111.2 3426.1 93.8004 3413.7 75.5004C3405.3 63.2004 3392.4 53.2004 3378.4 48.3004L3370.5 45.5004L3307.8 45.2004L3245 44.9004V126V207H3256.3H3267.5L3270.2 211.8C3271.7 214.4 3275.5 220.6 3278.6 225.5C3281.8 230.5 3286.3 237.7 3288.6 241.5L3292.9 248.5L3268.9 248.8L3245 249V318.5V388H3221H3197V195.5Z" fill="#808080"></path><path d="M643.3 383.4C632.2 369.1 608.6 339.8 604.3 334.8C601.9 332.1 600 329.6 600 329.2C600 328.8 598.7 327.2 597.2 325.5C595.6 323.9 592.7 320.4 590.8 317.8C588.8 315.2 583.6 308.7 579.3 303.4C575 298.1 570.6 292.6 569.6 291.1C568.5 289.7 566 286.6 564.1 284.3C562.1 282 557.9 276.8 554.8 272.8C551.6 268.8 544.9 260.3 539.8 254C534.7 247.7 529.2 240.7 527.5 238.5C525.9 236.4 523.9 233.9 523 233C522.2 232.1 519.5 228.8 517 225.6C510 216.7 508.7 215 489.5 191.1C479.6 178.8 470.6 167.6 469.5 166.1C468.4 164.7 461.2 155.7 453.5 146.1C445.8 136.6 438.4 127.3 437 125.5C434.8 122.6 425.1 110.6 405.5 86.1C402.2 82 398.4 77.2 397 75.4C395.6 73.5 388.9 65 382 56.4C375.1 47.8 367.8 38.4 365.8 35.6L362 30.5V16.8V3H380.8L399.5 3.1L403.6 8.3C405.8 11.2 412.1 19.1 417.6 25.9C431.2 42.8 432.8 44.9 438 51.6C443.4 58.6 465.8 86.9 467.7 89C469.1 90.6 476.3 99.7 479.5 103.9C480.6 105.3 487.8 114.4 495.5 124C503.2 133.6 510.4 142.6 511.5 144.1C513.8 147.2 540 180 546.5 188C549 191 553.4 196.5 556.2 200.1C559.1 203.8 565.6 211.8 570.5 218C575.5 224.2 581.5 231.9 584 235.1C586.5 238.3 590.5 243.4 593 246.5C598 252.8 598.9 253.9 614.4 273.6C620.4 281.3 627 289.4 628.9 291.7C630.9 294 633.8 297.5 635.3 299.5C636.9 301.4 638.6 303 639.1 303C639.6 303 640 241.4 640 153V3H663.5H687V195V387H666.5H646.1L643.3 383.4Z" fill="#808080"></path><path d="M1321 297V207.1L1407.8 206.8C1489.7 206.5 1494.8 206.4 1499.5 204.6C1524.8 195.1 1539 178.5 1546.6 149.3C1549.6 137.9 1550.3 119.6 1548.1 109.6C1544.6 93.6004 1537.5 78.8004 1528.1 67.9004C1523.3 62.2004 1510.5 53.0004 1503.7 50.2004C1491.3 45.2004 1488.6 45.0004 1426.8 45.0004H1369V100.5V156H1345H1321V79.5004V2.90039L1409.8 3.20039L1498.5 3.50039L1508.5 6.30039C1520.1 9.50039 1536 17.3004 1545.9 24.6004C1571.5 43.4004 1591.3 75.6004 1595.7 105.5C1600.3 137.1 1595 165.9 1579.6 192C1569.4 209.3 1554.3 225.4 1541.1 232.8C1530 239.1 1525.2 241.3 1517.9 243.5C1500.3 248.8 1497.5 249 1430.9 249H1369V318V387H1345H1321V297Z" fill="#808080"></path><path d="M1660 297V207H1743.4C1793 207 1828.8 206.6 1831.8 206C1841.1 204.3 1852.5 199.1 1859.3 193.5C1871.1 183.7 1881.4 166.3 1886.1 148.1C1888.8 137.5 1888.8 115.3 1886 104.5C1883.3 93.9004 1875.3 77.8004 1868.8 70.0004C1861 60.7004 1848.1 51.8004 1837.2 48.3004L1828.5 45.5004H1768H1707.5L1707.2 100.8L1707 156H1683.5H1660V79.5004V2.90039L1748.8 3.30039L1837.5 3.60039L1847.4 6.30039C1865.9 11.3004 1888.8 25.2004 1901.1 38.8004C1926.4 66.9004 1939.7 104.3 1936.2 137.3C1933.1 166.5 1922 191.9 1902.6 214.1C1892.1 226 1874.5 237.8 1859.5 242.8C1841.9 248.6 1845.7 248.3 1774 248.9L1707.5 249.5L1707.2 318.3L1707 387H1683.5H1660V297Z" fill="#808080"></path><path d="M2097 317V247.1L2100.6 240.3C2102.6 236.5 2105.8 231 2107.6 227.9C2109.5 224.8 2111 222 2111 221.6C2111 221.3 2113.1 217.6 2115.6 213.3C2118.1 209.1 2120.8 204.2 2121.6 202.5C2122.3 200.9 2125 196.4 2127.4 192.5C2129.9 188.7 2131.9 185.1 2132 184.7C2132 184.2 2133.3 182 2134.8 179.7C2136.4 177.4 2139 173 2140.7 170C2142.3 167 2145.3 161.9 2147.4 158.7C2149.4 155.6 2151.4 152.2 2151.7 151.2C2152.1 150.3 2154.3 146.4 2156.8 142.6C2159.2 138.9 2161.5 134.8 2162 133.6C2162.4 132.4 2164.1 129.4 2165.8 126.9C2167.4 124.5 2170.2 119.8 2172 116.5C2173.8 113.3 2176.8 108.2 2178.6 105.3C2180.5 102.5 2182 99.9 2182 99.6C2182 99.3 2184 95.9 2186.5 92C2188.9 88.2 2191.6 83.6 2192.5 81.8C2193.3 80 2195.8 75.6 2198 72.1C2200.2 68.7 2202 65.5 2202 65.1C2202 64.8 2203.5 62.2 2205.3 59.5C2207.2 56.7 2210 52 2211.7 49C2213.3 46 2216.3 40.9 2218.4 37.7C2220.4 34.6 2222.4 31.2 2222.7 30.2C2223.1 29.3 2225.2 25.6 2227.5 22C2229.8 18.4 2232.3 14.2 2233.2 12.5C2234 10.9 2235.6 8 2236.6 6.3L2238.5 3H2264.3H2290L2286.8 8.8C2285.1 11.9 2282.2 16.8 2280.4 19.5C2278.7 22.3 2274.6 29 2271.3 34.5C2268 40 2261.9 50.4 2257.6 57.5C2253.4 64.7 2246.5 76.1 2242.3 83C2238.2 89.9 2232.3 99.8 2229.2 105C2226.2 110.2 2222 117.2 2219.9 120.5C2217.9 123.8 2211.1 135.1 2205 145.5C2198.8 156 2192.1 167.2 2190 170.5C2187.9 173.8 2183.6 181 2180.3 186.5C2157.9 224.3 2147.4 241.8 2145.8 243.9C2144.1 246.1 2144 250.3 2144 316.6V387H2120.5H2097V317Z" fill="#808080"></path><path d="M3554 366V345H3684.5H3815V366V387H3684.5H3554V366Z" fill="#808080"></path><path d="M3554 233V171H3668.5H3783V191V211H3692.5H3602V253V295H3578H3554V233Z" fill="#808080"></path><path d="M2065.4 194.8C2063.3 191.4 2061.3 188.1 2061.1 187.5C2060.9 187 2058.4 182.7 2055.5 178C2050.3 169.5 2034.7 143.4 2030 135.4C2023.6 124.3 2017.4 114.1 2014.5 109.5C2012.7 106.8 2010.5 102.9 2009.5 101C2008.5 99.1 2006.3 95.3 2004.5 92.5C2000.2 85.7 1992.2 72.5 1989.1 66.9C1984.5 58.9 1977.8 47.7 1973.5 41C1971.2 37.4 1969 33.7 1968.7 32.8C1968.4 31.8 1966 28 1963.5 24.2C1961 20.4 1959 17 1959 16.6C1959 16.2 1957.5 13.6 1955.7 10.7C1953.9 7.8 1952 4.9 1951.6 4.3C1951 3.3 1956.3 3 1976.9 3H2002.9L2006 8.3C2007.7 11.1 2011.9 18.2 2015.2 24C2024.5 40.1 2031.3 51.7 2036.1 60C2038.5 64.1 2040.7 67.9 2040.9 68.5C2041.1 69 2043.4 73.1 2046 77.5C2048.6 81.9 2053.3 90 2056.5 95.5C2059.7 101 2064.6 109.6 2067.5 114.5C2076.3 129.7 2088.1 150.2 2091.1 155.6L2094 160.7L2088.7 169.6C2074.4 193.6 2072.1 197.6 2071.4 199.3C2070.4 202 2069.5 201.4 2065.4 194.8Z" fill="#808080"></path><path d="M2439.6 166.8C2439.9 164.4 2441.1 158.5 2442.2 153.5C2443.2 148.6 2444.7 141.6 2445.5 138C2447.4 129.3 2457.1 105.2 2462 96.8002C2464.2 93.2002 2466 89.9002 2466 89.5002C2466 88.5002 2478.8 70.1002 2482.9 65.2002C2487.7 59.5002 2508.2 39.0002 2509.1 39.0002C2509.5 39.0002 2512.1 37.2002 2514.9 35.0002C2534.8 19.3002 2565.1 6.9002 2595.8 1.9002C2607.4 0.000204206 2637.5 0.300204 2649 2.4002C2665.3 5.3002 2680.1 9.7002 2691.9 15.0002C2703.5 20.2002 2704.3 20.7002 2714 26.9002C2731.6 38.1002 2752.6 61.3002 2761.9 79.7002L2764 84.0002L2752.3 91.7002C2745.8 95.9002 2738.9 100.3 2737 101.3C2735.1 102.4 2732.1 104.4 2730.2 105.8C2728.4 107.1 2726.8 108.1 2726.6 107.9C2726.5 107.7 2724.6 104.4 2722.5 100.5C2717.4 91.1002 2711.7 83.9002 2702.9 75.5002C2693.2 66.2002 2687.3 62.1002 2675.4 56.1002C2658.1 47.4002 2631 42.0002 2611.7 43.4002C2590.6 45.0002 2575.8 49.4002 2556 60.2002C2542.9 67.2002 2524.7 84.7002 2513.4 101.1C2502.6 116.9 2493.2 140 2489.1 161.5L2487.3 170.5L2463.2 170.8L2439 171L2439.6 166.8Z" fill="#808080"></path><path d="M3554 62V3H3682H3810V24V45H3706H3602V83V121H3578H3554V62Z" fill="#808080"></path><path d="M991.1 390.4C970.9 385 954.5 368.2 950 348.4C946.5 333 950.8 315.2 961.1 302.5C967.1 295.1 970.7 292.2 979.1 288C988 283.5 994 282 1004.3 282C1025.1 282 1043.3 293.7 1053.1 313.4L1057.5 322.3L1057.8 335.3C1058.1 346.6 1057.9 348.9 1056 354C1045.8 381.2 1017 397.4 991.1 390.4Z" fill="#89A77A"></path><path d="M753.1 293.8C750.6 292.5 747.2 289.8 745.6 287.7C742.7 284 742.5 283.3 742.5 275.2C742.6 268.7 743 265.6 744.4 263C746.3 259.5 788.3 217.1 920.4 85.0001C967.7 37.8001 989.6 16.6001 993.2 14.5001C1000 10.7001 1006.6 10.5001 1013.3 14.0001C1020 17.5001 1260.2 257.6 1263.2 263.8C1264.8 267.3 1265.2 269.4 1264.8 274.4C1263.8 286.4 1255.7 294.4 1243.5 295.7C1232.9 296.8 1240.3 303.6 1117.3 180.7C1013.6 77.1001 1004 67.8001 1002.4 69.1001C1001.4 69.9001 950.9 120.1 890.2 180.8C801.2 269.8 778.9 291.6 775.1 293.2C772.6 294.3 767.6 295.4 764 295.7C758.6 296.1 756.8 295.8 753.1 293.8Z" fill="#89A77A"></path><path d="M538.525 562.106H563.653V738H538.525V562.106ZM437.512 738H412.384V562.106H437.512V738ZM540.787 659.601H434.999V637.74H540.787V659.601ZM713.295 740.01C699.893 740.01 687.413 737.749 675.854 733.226C664.463 728.703 654.579 722.421 646.204 714.38C637.828 706.172 631.294 696.623 626.604 685.734C621.913 674.846 619.568 662.952 619.568 650.053C619.568 637.154 621.913 625.26 626.604 614.372C631.294 603.483 637.828 594.018 646.204 585.977C654.579 577.769 664.463 571.403 675.854 566.88C687.246 562.357 699.726 560.096 713.295 560.096C726.696 560.096 739.009 562.357 750.232 566.88C761.624 571.236 771.507 577.518 779.883 585.726C788.427 593.767 794.96 603.232 799.483 614.12C804.173 625.009 806.518 636.987 806.518 650.053C806.518 663.119 804.173 675.097 799.483 685.986C794.96 696.874 788.427 706.423 779.883 714.631C771.507 722.672 761.624 728.954 750.232 733.477C739.009 737.832 726.696 740.01 713.295 740.01ZM713.295 717.647C723.011 717.647 731.973 715.971 740.181 712.621C748.557 709.271 755.76 704.58 761.791 698.549C767.989 692.351 772.764 685.148 776.114 676.94C779.632 668.731 781.391 659.769 781.391 650.053C781.391 640.337 779.632 631.375 776.114 623.166C772.764 614.958 767.989 607.838 761.791 601.808C755.76 595.61 748.557 590.835 740.181 587.485C731.973 584.135 723.011 582.459 713.295 582.459C703.411 582.459 694.281 584.135 685.905 587.485C677.697 590.835 670.494 595.61 664.296 601.808C658.097 607.838 653.239 614.958 649.721 623.166C646.371 631.375 644.696 640.337 644.696 650.053C644.696 659.769 646.371 668.731 649.721 676.94C653.239 685.148 658.097 692.351 664.296 698.549C670.494 704.58 677.697 709.271 685.905 712.621C694.281 715.971 703.411 717.647 713.295 717.647ZM862.514 738V562.106H883.119L962.02 695.032H950.964L1028.86 562.106H1049.46L1049.72 738H1025.59L1025.34 600.049H1031.12L961.769 716.641H950.21L880.355 600.049H886.637V738H862.514ZM1142.96 637.992H1233.42V659.35H1142.96V637.992ZM1145.22 716.139H1247.74V738H1120.09V562.106H1244.22V583.967H1145.22V716.139Z" fill="#89A77A"></path><path d="M1464.03 740.01C1450.63 740.01 1438.24 737.832 1426.84 733.477C1415.62 728.954 1405.82 722.672 1397.45 714.631C1389.24 706.423 1382.79 696.874 1378.1 685.986C1373.41 675.097 1371.06 663.119 1371.06 650.053C1371.06 636.987 1373.41 625.009 1378.1 614.12C1382.79 603.232 1389.32 593.767 1397.7 585.726C1406.07 577.518 1415.87 571.236 1427.1 566.88C1438.49 562.357 1450.88 560.096 1464.29 560.096C1477.85 560.096 1490.33 562.441 1501.73 567.131C1513.28 571.654 1523.08 578.439 1531.12 587.485L1514.79 603.315C1508.09 596.28 1500.55 591.087 1492.18 587.736C1483.8 584.218 1474.84 582.459 1465.29 582.459C1455.41 582.459 1446.19 584.135 1437.65 587.485C1429.27 590.835 1421.99 595.526 1415.79 601.556C1409.59 607.587 1404.73 614.79 1401.21 623.166C1397.86 631.375 1396.19 640.337 1396.19 650.053C1396.19 659.769 1397.86 668.815 1401.21 677.191C1404.73 685.399 1409.59 692.519 1415.79 698.549C1421.99 704.58 1429.27 709.271 1437.65 712.621C1446.19 715.971 1455.41 717.647 1465.29 717.647C1474.84 717.647 1483.8 715.971 1492.18 712.621C1500.55 709.103 1508.09 703.743 1514.79 696.539L1531.12 712.37C1523.08 721.416 1513.28 728.284 1501.73 732.974C1490.33 737.665 1477.77 740.01 1464.03 740.01ZM1553.75 738L1633.41 562.106H1658.29L1738.19 738H1711.81L1640.7 576.177H1650.75L1579.64 738H1553.75ZM1587.68 694.026L1594.46 673.924H1693.46L1700.75 694.026H1587.68ZM1782.02 738V562.106H1850.62C1866.03 562.106 1879.18 564.535 1890.07 569.393C1900.96 574.251 1909.33 581.287 1915.2 590.5C1921.06 599.714 1923.99 610.686 1923.99 623.418C1923.99 636.149 1921.06 647.121 1915.2 656.335C1909.33 665.381 1900.96 672.333 1890.07 677.191C1879.18 682.049 1866.03 684.478 1850.62 684.478H1795.84L1807.15 672.919V738H1782.02ZM1899.62 738L1854.89 674.176H1881.78L1927.01 738H1899.62ZM1807.15 675.432L1795.84 663.119H1849.86C1865.95 663.119 1878.09 659.685 1886.3 652.817C1894.68 645.781 1898.86 635.981 1898.86 623.418C1898.86 610.854 1894.68 601.138 1886.3 594.269C1878.09 587.401 1865.95 583.967 1849.86 583.967H1795.84L1807.15 571.403V675.432ZM2005.04 637.992H2095.5V659.35H2005.04V637.992ZM2007.31 716.139H2109.83V738H1982.18V562.106H2106.31V583.967H2007.31V716.139Z" fill="#89A77A"></path><path d="M2312.64 740.01C2299.24 740.01 2286.43 738 2274.2 733.98C2261.97 729.792 2252.34 724.431 2245.3 717.898L2254.6 698.298C2261.3 704.161 2269.84 709.019 2280.23 712.872C2290.62 716.725 2301.42 718.652 2312.64 718.652C2322.86 718.652 2331.16 717.479 2337.52 715.134C2343.89 712.789 2348.58 709.606 2351.59 705.585C2354.61 701.397 2356.12 696.707 2356.12 691.514C2356.12 685.483 2354.11 680.625 2350.09 676.94C2346.23 673.254 2341.12 670.323 2334.76 668.145C2328.56 665.8 2321.69 663.789 2314.15 662.114C2306.61 660.439 2298.99 658.513 2291.29 656.335C2283.75 653.99 2276.8 651.058 2270.43 647.54C2264.23 644.022 2259.21 639.332 2255.35 633.469C2251.5 627.438 2249.57 619.732 2249.57 610.351C2249.57 601.305 2251.92 593.013 2256.61 585.475C2261.47 577.769 2268.84 571.654 2278.72 567.131C2288.77 562.441 2301.5 560.096 2316.92 560.096C2327.14 560.096 2337.27 561.436 2347.32 564.116C2357.37 566.796 2366.08 570.649 2373.45 575.675L2365.16 595.777C2357.62 590.751 2349.67 587.15 2341.29 584.972C2332.91 582.627 2324.79 581.454 2316.92 581.454C2307.03 581.454 2298.91 582.711 2292.54 585.223C2286.18 587.736 2281.49 591.087 2278.47 595.274C2275.62 599.462 2274.2 604.153 2274.2 609.346C2274.2 615.544 2276.13 620.486 2279.98 624.171C2284 627.857 2289.11 630.788 2295.31 632.966C2301.67 635.144 2308.62 637.154 2316.16 638.997C2323.7 640.672 2331.24 642.598 2338.78 644.776C2346.48 646.954 2353.44 649.802 2359.63 653.32C2366 656.837 2371.11 661.528 2374.96 667.391C2378.81 673.254 2380.74 680.793 2380.74 690.006C2380.74 698.884 2378.31 707.177 2373.45 714.882C2368.6 722.421 2361.06 728.535 2350.84 733.226C2340.79 737.749 2328.06 740.01 2312.64 740.01ZM2457.91 637.992H2548.37V659.35H2457.91V637.992ZM2460.17 716.139H2562.69V738H2435.04V562.106H2559.17V583.967H2460.17V716.139ZM2620.97 738V562.106H2689.56C2704.98 562.106 2718.13 564.535 2729.02 569.393C2739.9 574.251 2748.28 581.287 2754.14 590.5C2760.01 599.714 2762.94 610.686 2762.94 623.418C2762.94 636.149 2760.01 647.121 2754.14 656.335C2748.28 665.381 2739.9 672.333 2729.02 677.191C2718.13 682.049 2704.98 684.478 2689.56 684.478H2634.79L2646.09 672.919V738H2620.97ZM2738.56 738L2693.84 674.176H2720.72L2765.95 738H2738.56ZM2646.09 675.432L2634.79 663.119H2688.81C2704.89 663.119 2717.04 659.685 2725.25 652.817C2733.62 645.781 2737.81 635.981 2737.81 623.418C2737.81 610.854 2733.62 601.138 2725.25 594.269C2717.04 587.401 2704.89 583.967 2688.81 583.967H2634.79L2646.09 571.403V675.432ZM2871.88 738L2794.49 562.106H2821.63L2892.74 724.431H2877.16L2948.77 562.106H2973.9L2896.76 738H2871.88ZM3013.92 738V562.106H3039.05V738H3013.92ZM3187.95 740.01C3174.55 740.01 3162.15 737.832 3150.76 733.477C3139.53 728.954 3129.74 722.672 3121.36 714.631C3113.15 706.423 3106.7 696.874 3102.01 685.986C3097.32 675.097 3094.98 663.119 3094.98 650.053C3094.98 636.987 3097.32 625.009 3102.01 614.12C3106.7 603.232 3113.23 593.767 3121.61 585.726C3129.99 577.518 3139.79 571.236 3151.01 566.88C3162.4 562.357 3174.8 560.096 3188.2 560.096C3201.77 560.096 3214.25 562.441 3225.64 567.131C3237.2 571.654 3247 578.439 3255.04 587.485L3238.71 603.315C3232 596.28 3224.47 591.087 3216.09 587.736C3207.71 584.218 3198.75 582.459 3189.2 582.459C3179.32 582.459 3170.11 584.135 3161.56 587.485C3153.19 590.835 3145.9 595.526 3139.7 601.556C3133.5 607.587 3128.65 614.79 3125.13 623.166C3121.78 631.375 3120.1 640.337 3120.1 650.053C3120.1 659.769 3121.78 668.815 3125.13 677.191C3128.65 685.399 3133.5 692.519 3139.7 698.549C3145.9 704.58 3153.19 709.271 3161.56 712.621C3170.11 715.971 3179.32 717.647 3189.2 717.647C3198.75 717.647 3207.71 715.971 3216.09 712.621C3224.47 709.103 3232 703.743 3238.71 696.539L3255.04 712.37C3247 721.416 3237.2 728.284 3225.64 732.974C3214.25 737.665 3201.68 740.01 3187.95 740.01ZM3331.34 637.992H3421.8V659.35H3331.34V637.992ZM3333.6 716.139H3436.12V738H3308.47V562.106H3432.61V583.967H3333.6V716.139Z" fill="#89A77A"></path></svg>