<?xml version="1.0" encoding="UTF-8"?> <svg xmlns="http://www.w3.org/2000/svg" width="86" height="60" viewBox="0 0 86 60" fill="none"><g clip-path="url(#clip0_4058_6486)"><mask id="mask0_4058_6486" style="mask-type:luminance" maskUnits="userSpaceOnUse" x="0" y="31" width="86" height="30"><path d="M0 59.9915L85.8972 60.0021V44.3336C85.8994 37.0428 79.9915 31.1328 72.7008 31.1328L0.00212743 31.1222V59.9915H0Z" fill="white"></path></mask><g mask="url(#mask0_4058_6486)"><path d="M85.9036 31.118H0V60.0065H85.9036V31.118Z" fill="url(#paint0_linear_4058_6486)"></path></g><path d="M7.31383 51.5392L14.7194 51.5413V53.8177L4.58008 53.8155L4.58221 38.2853H14.6003V40.5382H7.31383V44.8037L13.6429 44.8059L13.3302 47.0099H7.31383V51.5392Z" fill="white"></path><path d="M32.5773 38.2875V53.8199H29.4841L23.6506 44.9995C23.5719 44.8719 23.4209 44.6357 23.1932 44.2932C22.9677 43.9507 22.7635 43.6231 22.5848 43.3103C22.404 42.9976 22.2444 42.6828 22.104 42.3636V53.8199H19.3702V38.2875H22.3678L28.4842 47.5397C28.5629 47.6524 28.7033 47.8631 28.9054 48.1758C29.1075 48.4864 29.2883 48.7757 29.4436 49.0374C29.6011 49.3012 29.733 49.5607 29.8415 49.816V38.2875H32.5752H32.5773Z" fill="white"></path><path d="M45.5441 38.2896L51.2712 53.6539V53.822H48.3949L46.9333 49.699H40.7021L39.2639 53.8199H36.46V53.6518L42.1657 38.2875H45.5462L45.5441 38.2896ZM41.4679 47.4929H46.1419L43.7932 40.8298L41.4679 47.4929Z" fill="white"></path><path d="M65.7006 38.2917V38.4597L59.9949 47.5907V53.8219H57.2632V47.5673L51.6787 38.4576V38.2896H54.7231L58.678 45.0973L62.8009 38.2917H65.7006Z" fill="white"></path><path d="M75.1945 38.2917L80.9215 53.656V53.8241H78.0453L76.5837 49.7011H70.3525L68.9143 53.8219H66.1104V53.6539L71.8161 38.2896H75.1966L75.1945 38.2917ZM71.1183 47.495H75.7923L73.4436 40.8318L71.1183 47.495Z" fill="white"></path><path d="M17.3783 17.2896C17.5443 17.4513 17.6272 17.6832 17.6272 17.9853C17.6272 18.5151 17.4847 18.9618 17.2017 19.3213C16.9167 19.6809 16.4444 19.8617 15.7806 19.8617C14.6446 19.8617 13.6915 19.7 12.9256 19.3788C12.1576 19.0575 11.5768 18.5172 11.179 17.7598C10.4769 17.9874 9.7004 18.1002 8.84943 18.1002C7.86443 18.1002 7.00282 17.9619 6.2646 17.6875C5.52638 17.413 4.95836 17.0195 4.56053 16.5089C4.1627 15.9983 3.96484 15.4005 3.96484 14.7197C3.96484 13.9623 4.22014 13.1901 4.73285 12.4051C5.24343 11.62 6.0008 10.8861 7.00495 10.2032C8.00909 9.52026 9.21109 8.95224 10.6131 8.4991V7.16307L13.0937 6.08446L13.3107 6.1419V14.8346C13.3107 15.4601 13.4106 15.9281 13.6149 16.2408C13.8191 16.5536 14.1404 16.7663 14.5786 16.8812C15.0169 16.9961 15.6445 17.0514 16.4614 17.0514C16.9081 17.0514 17.2145 17.1322 17.3804 17.2939M7.88145 4.17615L5.32427 2.38485L6.88794 0L9.44511 1.76151L7.88145 4.17615ZM10.6067 15.2282V11.2499C9.4132 11.5732 8.41118 11.9838 7.5985 12.4859C6.78795 12.988 6.29226 13.5049 6.11781 14.0347C6.27311 14.4517 6.64116 14.7772 7.21769 15.0154C7.79422 15.2537 8.4048 15.3707 9.05154 15.3707C9.54085 15.3707 10.0599 15.3239 10.6067 15.2282ZM11.8874 4.17615L9.33023 2.38698L10.9216 0L13.4787 1.76151L11.8874 4.17615Z" fill="#074449"></path><path d="M16.4624 17.0769H18.7345C19.1706 17.0769 19.4727 17.1535 19.6429 17.3045C19.8131 17.4556 19.8982 17.6832 19.8982 17.9874C19.8982 18.5172 19.7663 18.9639 19.5004 19.3235C19.2344 19.683 18.7706 19.8638 18.109 19.8638H15.8369L16.4624 17.079V17.0769Z" fill="#074449"></path><path d="M18.7339 17.0769H21.006C21.4421 17.0769 21.7442 17.1535 21.9144 17.3045C22.0846 17.4556 22.1697 17.6832 22.1697 17.9874C22.1697 18.5172 22.0378 18.9639 21.7718 19.3235C21.5059 19.683 21.0421 19.8638 20.3805 19.8638H18.1084L18.7339 17.079V17.0769Z" fill="#074449"></path><path d="M21.0063 17.0769H23.2784C23.7145 17.0769 24.0166 17.1535 24.1868 17.3045C24.357 17.4556 24.4421 17.6832 24.4421 17.9874C24.4421 18.5172 24.3102 18.9639 24.0443 19.3235C23.7784 19.683 23.3146 19.8638 22.653 19.8638H20.3809L21.0063 17.079V17.0769Z" fill="#074449"></path><path d="M23.2788 17.0769H25.5509C25.987 17.0769 26.2891 17.1535 26.4593 17.3045C26.6295 17.4556 26.7146 17.6832 26.7146 17.9874C26.7146 18.5172 26.5827 18.9639 26.3168 19.3235C26.0508 19.683 25.5871 19.8638 24.9254 19.8638H22.6533L23.2788 17.079V17.0769Z" fill="#074449"></path><path d="M25.5505 17.0769H27.8226C28.2587 17.0769 28.5608 17.1535 28.731 17.3045C28.9012 17.4556 28.9863 17.6832 28.9863 17.9874C28.9863 18.5172 28.8544 18.9639 28.5885 19.3235C28.3226 19.683 27.8588 19.8638 27.1971 19.8638H24.925L25.5505 17.079V17.0769Z" fill="#074449"></path><path d="M27.861 17.0494H28.695C30.2289 17.0494 31.2075 16.9558 31.6287 16.7664C31.7053 16.558 31.7436 16.3027 31.7436 15.9984C31.7436 15.4304 31.6117 14.7816 31.3458 14.0518C31.0798 13.3221 30.7203 12.4839 30.2672 11.5372L32.4946 9.71826H32.7711C33.2158 10.7224 33.5711 11.7223 33.8412 12.7158C34.1093 13.7093 34.2433 14.5199 34.2433 15.1453C34.2433 15.8261 34.1199 16.4899 33.8732 17.1345C33.6264 17.7791 33.2775 18.3195 32.8222 18.7535C32.3861 19.1704 31.8287 19.4598 31.1458 19.6193C30.4629 19.781 29.4417 19.8597 28.078 19.8597H27.1973L27.8589 17.0473L27.861 17.0494ZM29.897 26.1697L27.3121 24.3805L28.9035 21.9936L31.4606 23.7551L29.897 26.1697ZM33.9604 26.1697L31.4032 24.3805L32.9945 21.9936L35.5517 23.7551L33.9604 26.1697Z" fill="#074449"></path><path d="M39.0021 18.6704C38.1022 17.8748 37.6533 16.5494 37.6533 14.6921V1.02551L40.136 0.344727L40.3552 0.487265V14.4368C40.3552 15.1368 40.4551 15.6729 40.6594 16.0409C40.8636 16.4111 41.1934 16.6706 41.6508 16.8217C42.1082 16.9727 42.7358 17.0493 43.5335 17.0493C43.9612 17.0493 44.2633 17.1302 44.4377 17.2919C44.6122 17.4535 44.6994 17.6854 44.6994 17.9875C44.6994 18.5364 44.5611 18.9874 44.2867 19.3363C44.0122 19.6873 43.5527 19.8618 42.9081 19.8618C41.204 19.8618 39.902 19.464 39.0021 18.6683" fill="#074449"></path><path d="M43.5337 17.079H45.8058C46.2419 17.079 46.544 17.1556 46.7142 17.3066C46.8844 17.4577 46.9695 17.6853 46.9695 17.9895C46.9695 18.5193 46.8376 18.966 46.5716 19.3255C46.3057 19.6851 45.8419 19.8659 45.1803 19.8659H42.9082L43.5337 17.0811V17.079Z" fill="#074449"></path><path d="M45.8061 17.079H48.0782C48.5144 17.079 48.8164 17.1556 48.9866 17.3066C49.1568 17.4577 49.2419 17.6853 49.2419 17.9895C49.2419 18.5193 49.11 18.966 48.8441 19.3255C48.5782 19.6851 48.1144 19.8659 47.4528 19.8659H45.1807L45.8061 17.0811V17.079Z" fill="#074449"></path><path d="M48.0797 17.0791H50.3518C50.7879 17.0791 51.09 17.1557 51.2602 17.3067C51.4304 17.4578 51.5155 17.6854 51.5155 17.9896C51.5155 18.5194 51.3836 18.9661 51.1177 19.3257C50.8517 19.6852 50.388 19.866 49.7263 19.866H47.4542L48.0797 17.0812V17.0791Z" fill="#074449"></path><path d="M50.352 17.0791H52.6241C53.0602 17.0791 53.3623 17.1557 53.5325 17.3067C53.7027 17.4578 53.7878 17.6854 53.7878 17.9896C53.7878 18.5194 53.6559 18.9661 53.39 19.3257C53.1241 19.6852 52.6603 19.866 51.9987 19.866H49.7266L50.352 17.0812V17.0791Z" fill="#074449"></path><path d="M52.6238 17.0791H54.8959C55.332 17.0791 55.6341 17.1557 55.8043 17.3067C55.9745 17.4578 56.0596 17.6854 56.0596 17.9896C56.0596 18.5194 55.9277 18.9661 55.6617 19.3257C55.3958 19.6852 54.932 19.866 54.2704 19.866H51.9983L52.6238 17.0812V17.0791Z" fill="#074449"></path><path d="M54.897 17.0811H57.169C57.6052 17.0811 57.9073 17.1576 58.0775 17.3087C58.2477 17.4597 58.3328 17.6874 58.3328 17.9916C58.3328 18.5213 58.2009 18.9681 57.9349 19.3276C57.669 19.6872 57.2052 19.868 56.5436 19.868H54.2715L54.897 17.0832V17.0811Z" fill="#074449"></path><path d="M67.2843 17.2939C67.4545 17.4556 67.5396 17.6875 67.5396 17.9896C67.5396 18.5193 67.4077 18.9661 67.1418 19.3256C66.8759 19.6852 66.4121 19.866 65.7504 19.866C65.0292 19.866 64.2825 19.7532 63.506 19.5256C62.7295 19.298 62.0657 18.9576 61.5169 18.5023C61.0063 18.9576 60.3893 19.298 59.6702 19.5256C58.949 19.7532 58.0981 19.866 57.1131 19.866H56.545L57.1982 17.0535H57.7662C58.9022 17.0535 59.6788 16.9025 60.0957 16.5982C60.2659 16.2962 60.4404 15.8175 60.6212 15.1644C60.802 14.5112 61.0233 13.5964 61.2892 12.4221L64.1315 11.7392L64.4165 11.937C64.1889 12.922 63.9698 13.7645 63.7634 14.4666C63.5549 15.1665 63.3188 15.7919 63.0529 16.3408C63.9613 16.8152 65.0803 17.0514 66.4057 17.0514C66.8227 17.0514 67.1163 17.1322 67.2865 17.2939M63.055 8.89694L60.4127 7.05033L62.0615 4.60803L64.7038 6.42699L63.055 8.89907V8.89694Z" fill="#074449"></path><path d="M79.3005 16.6282L78.4474 19.1577C77.2539 19.3853 75.6733 19.5598 73.7033 19.6832C71.7333 19.8065 69.0825 19.8682 65.7488 19.8661L66.3742 17.0537H69.0442C68.3804 15.9942 68.0507 14.9049 68.0507 13.7859C68.0507 12.7435 68.2974 11.8457 68.7889 11.0862C69.2803 10.3288 69.959 9.7523 70.8206 9.35447C71.6822 8.95664 72.6523 8.75879 73.733 8.75879C74.3755 8.75879 75.0584 8.83963 75.7796 9.00132C76.4987 9.163 77.1327 9.37574 77.6837 9.64167L77.3178 12.084L77.1965 12.1691C75.92 11.7138 74.7946 11.4862 73.8224 11.4862C72.8502 11.4862 72.0949 11.6989 71.5567 12.1244C71.0184 12.5499 70.7504 13.1604 70.7504 13.9561C70.7504 14.4305 70.8695 14.9326 71.1099 15.4623C71.3503 15.9921 71.6992 16.4941 72.1609 16.9686C74.801 16.9111 77.122 16.7516 79.1218 16.4856L79.3027 16.6282H79.3005Z" fill="#074449"></path></g><defs><linearGradient id="paint0_linear_4058_6486" x1="-11.8911" y1="38.8259" x2="74.0062" y2="38.8259" gradientUnits="userSpaceOnUse"><stop stop-color="#00818D"></stop><stop offset="0.13" stop-color="#0B828D"></stop><stop offset="0.36" stop-color="#288790"></stop><stop offset="0.66" stop-color="#588E94"></stop><stop offset="1" stop-color="#97989A"></stop></linearGradient><clipPath id="clip0_4058_6486"><rect width="85.8994" height="60" fill="white"></rect></clipPath></defs></svg> 